HIERARCHY
ROOT Hips
{
  OFFSET 267.745 86.9975 -272.335
  CHANNELS 6 Xposition Yposition Zposition Zrotation Xrotation Yrotation
  JOINT LeftUpLeg
  {
    OFFSET 8.64259 1.95398 -2.38835
    CHANNELS 3 Zrotation Xrotation Yrotation
    JOINT LeftLeg
    {
      OFFSET 43.7702 0 0
      CHANNELS 3 Zrotation Xrotation Yrotation
      JOINT LeftFoot
      {
        OFFSET 40.6238 0 0
        CHANNELS 3 Zrotation Xrotation Yrotation
        JOINT LeftToeBase
        {
          OFFSET 12.7242 0 0
          CHANNELS 3 Zrotation Xrotation Yrotation
          End Site
          {
            OFFSET 0 0 0
          }
        }
      }
    }
  }
  JOINT RightUpLeg
  {
    OFFSET -8.2249 1.95398 -2.59336
    CHANNELS 3 Zrotation Xrotation Yrotation
    JOINT RightLeg
    {
      OFFSET 43.5653 0 0
      CHANNELS 3 Zrotation Xrotation Yrotation
      JOINT RightFoot
      {
        OFFSET 40.6238 0 0
        CHANNELS 3 Zrotation Xrotation Yrotation
        JOINT RightToeBase
        {
          OFFSET 12.7242 0 0
          CHANNELS 3 Zrotation Xrotation Yrotation
          End Site
          {
            OFFSET 0 0 0
          }
        }
      }
    }
  }
  JOINT Spine
  {
    OFFSET 0.165834 0.87714 6.61349
    CHANNELS 3 Zrotation Xrotation Yrotation
    JOINT Spine1
    {
      OFFSET 7.38963 1.71661e-005 0
      CHANNELS 3 Zrotation Xrotation Yrotation
      JOINT Spine2
      {
        OFFSET 11.9445 1.14441e-005 0
        CHANNELS 3 Zrotation Xrotation Yrotation
        JOINT Spine3
        {
          OFFSET 14.7254 4.19617e-005 0
          CHANNELS 3 Zrotation Xrotation Yrotation
          JOINT Spine4
          {
            OFFSET 10.9679 0 0
            CHANNELS 3 Zrotation Xrotation Yrotation
            JOINT RightShoulder
            {
              OFFSET 2.46616 -1.6653 3.69651
              CHANNELS 3 Zrotation Xrotation Yrotation
              JOINT RightArm
              {
                OFFSET 13.0012 0 0
                CHANNELS 3 Zrotation Xrotation Yrotation
                JOINT RightForeArm
                {
                  OFFSET 28.7848 1.52588e-005 0
                  CHANNELS 3 Zrotation Xrotation Yrotation
                  JOINT RightHand
                  {
                    OFFSET 26.5688 1.52588e-005 0
                    CHANNELS 3 Zrotation Xrotation Yrotation
                    End Site
                    {
                      OFFSET 0 0 0
                    }
                  }
                }
              }
            }
            JOINT LeftShoulder
            {
              OFFSET 2.38034 -1.29275 -3.7523
              CHANNELS 3 Zrotation Xrotation Yrotation
              JOINT LeftArm
              {
                OFFSET 16.3182 6.10352e-005 0
                CHANNELS 3 Zrotation Xrotation Yrotation
                JOINT LeftForeArm
                {
                  OFFSET 27.0901 0 0
                  CHANNELS 3 Zrotation Xrotation Yrotation
                  JOINT LeftHand
                  {
                    OFFSET 24.5451 1.52588e-005 0
                    CHANNELS 3 Zrotation Xrotation Yrotation
                    End Site
                    {
                      OFFSET 0 0 0
                    }
                  }
                }
              }
            }
            JOINT Neck
            {
              OFFSET 5.0226 -0.0266342 0
              CHANNELS 3 Zrotation Xrotation Yrotation
              JOINT Head
              {
                OFFSET 6.69364 2.86102e-005 0
                CHANNELS 3 Zrotation Xrotation Yrotation
                End Site
                {
                  OFFSET 0 0 0
                }
              }
            }
          }
        }
      }
    }
  }
}
MOTION
Frames:	15
Frame Time:	0.0416667
13.5431 96.8 -28.3455 -134.01 -87.4203 -132.677 -174.244 2.75714 91.0803 -15.2627 3.99185 1.99229 67.9545 4.28562 0.27778 29.2317 -0.2747 1.9716 175.848 2.4273 89.4937 -14.2947 -9.91646 0.00187851 68.9258 -6.02424 0.698711 25.3746 0.7775 0.59007 -0.286838 7.03652 -90.2662 12.8002 -0.696997 -0.448982 1.12936 -0.716076 -0.417866 -21.4061 -0.529836 -0.6377 -1.39348 -0.52984 -0.637698 102.886 -50.3159 -81.0478 31.5692 -6.08586 -7.99971 1.58757 -15.0785 -11.985 -13.7625 -0.756124 1.2255 -79.0023 -49.759 95.1032 -35.1943 -0.429328 -18.454 -1.83798 40.4692 -0.681601 -0.0167086 -0.139959 -6.78146 8.89987 0.363187 1.53504 -19.2698 0.459639 -3.25949 
13.5651 96.8153 -28.368 -136.505 -87.5183 -135.174 -174.346 2.71199 91.0297 -15.1273 4.08634 2.07385 67.8405 4.34382 0.49532 29.521 -0.253417 1.53112 175.781 2.31157 89.4559 -14.1084 -9.89102 0.0608939 68.9873 -5.99818 0.830928 24.7028 0.986362 0.245497 -0.314073 7.03921 -90.2555 12.7871 -0.745945 -0.422051 1.11627 -0.763789 -0.388826 -21.4195 -0.584621 -0.626729 -1.40684 -0.584619 -0.62674 102.851 -50.4391 -81.1034 31.4336 -6.31733 -8.05963 1.72068 -14.7765 -11.9813 -13.8158 -0.781911 1.42508 -78.9279 -49.7139 95.2155 -35.1586 -0.405394 -18.4997 -1.75352 40.6574 -0.79343 -0.13334 -0.139273 -6.72542 9.11942 0.224219 0.889481 -19.3308 0.349502 -2.41281 
13.5157 96.8207 -28.3765 -134.241 -87.4117 -132.862 -174.274 2.65263 91.1227 -15.0329 3.97665 2.0568 67.8695 4.26576 0.115644 29.2471 -0.32733 2.42448 175.813 2.43856 89.5134 -14.3035 -9.90968 0.063555 68.8973 -5.8844 0.874094 25.0839 0.825364 0.77723 -0.288003 7.03936 -90.272 12.7955 -0.702051 -0.459884 1.12465 -0.721602 -0.428544 -21.4108 -0.53138 -0.649611 -1.39817 -0.531381 -0.649621 102.892 -50.189 -81.036 31.6473 -6.17336 -8.03455 1.66481 -15.1463 -11.8355 -13.8904 -0.782528 1.3935 -78.939 -49.863 95.2018 -35.0987 -0.297042 -18.5998 -1.96453 40.5032 -0.572225 0.143318 -0.138991 -6.79276 8.99665 0.34447 1.67986 -19.5598 0.426874 -3.33429 
13.5108 96.8109 -28.3848 -133.795 -87.4272 -132.44 -174.249 2.74834 91.117 -15.1539 3.95085 2.0162 67.9577 4.3086 0.191447 29.2093 -0.283045 2.057 175.838 2.43337 89.5291 -14.2476 -9.97904 0.0437461 68.9742 -6.04314 0.685851 24.9112 0.890153 0.59868 -0.278135 7.03678 -90.2708 12.7996 -0.681871 -0.459858 1.12878 -0.701444 -0.429404 -21.4066 -0.512143 -0.643525 -1.39397 -0.512145 -0.643528 102.968 -50.2609 -80.9194 31.4964 -6.24628 -8.05615 1.73245 -14.9684 -11.8682 -14.0254 -0.818725 1.63393 -79.0002 -49.9317 95.11 -34.9709 -0.184689 -18.5524 -1.94798 40.2962 -0.719053 0.454613 -0.140611 -6.47476 9.12709 0.24644 1.05698 -19.5026 0.324238 -2.31056 
13.4871 96.8185 -28.3936 -134.454 -87.3615 -133.14 -174.3 2.60987 91.0801 -15.0003 3.7657 2.06726 67.8621 4.24382 0.0535132 29.1463 -0.254544 1.865 175.721 2.37907 89.424 -14.2062 -10.2134 0.144527 68.8938 -6.03543 0.543932 25.1284 0.807086 0.841609 -0.281898 7.03455 -90.2622 12.7848 -0.685283 -0.443055 1.114 -0.704119 -0.412475 -21.4215 -0.520448 -0.628529 -1.40883 -0.520452 -0.628529 102.889 -50.237 -81.042 31.5253 -6.33758 -8.04407 1.82309 -14.9241 -11.8347 -14.595 -0.851604 1.62708 -78.999 -49.9075 95.1111 -34.9814 -0.181063 -18.4885 -1.9465 40.4542 -0.696183 0.730772 -0.144943 -6.64651 9.30177 0.196088 0.756791 -19.6429 0.281288 -1.86557 
13.455 96.828 -28.404 -133.874 -87.4402 -132.595 -174.319 2.68976 91.0356 -15.024 3.86423 2.05182 67.865 4.29268 0.225347 29.2725 -0.272465 1.91721 175.778 2.47714 89.4656 -14.2512 -10.1607 0.100431 68.7099 -5.8969 0.505447 25.4725 0.767223 0.47838 -0.282466 7.03605 -90.2727 12.8003 -0.691398 -0.4626 1.12946 -0.711092 -0.431731 -21.406 -0.520409 -0.649008 -1.39331 -0.520408 -0.649012 102.87 -50.0853 -81.0689 31.6293 -6.14 -8.02811 1.7526 -14.8659 -11.9418 -14.6851 -0.846079 1.53814 -79.007 -50.1039 95.1035 -35.0164 -0.36493 -18.4061 -1.79224 40.3141 -0.806722 0.558006 -0.149221 -6.56813 9.40174 0.177415 1.23966 -19.7971 0.240504 -2.46319 
13.4286 96.8136 -28.4219 -135.579 -87.4262 -134.167 -174.216 2.74787 91.2279 -15.2002 3.98954 2.05569 67.912 4.23635 0.000893814 29.1104 -0.304971 2.33731 175.836 2.39434 89.6043 -14.2578 -9.87278 0.0855225 68.9621 -6.00046 0.770366 24.8767 0.875921 0.7764 -0.285167 7.04454 -90.2865 12.7833 -0.703357 -0.488908 1.11241 -0.724181 -0.457481 -21.4229 -0.523903 -0.677689 -1.4103 -0.5239 -0.677686 102.905 -50.0264 -81.0138 31.656 -6.32787 -8.10024 1.78646 -14.9491 -11.8948 -14.7321 -0.830668 1.39165 -78.9789 -50.1389 95.1467 -35.1133 -0.565081 -18.4147 -1.74135 40.674 -0.69834 0.533078 -0.149579 -6.70184 9.21553 0.174621 0.634168 -19.4233 0.233452 -1.49273 
13.3731 96.8197 -28.4191 -134.823 -87.4816 -133.532 -174.247 2.76747 91.1374 -15.1338 3.94133 2.02217 67.9906 4.32327 0.0467117 28.9954 -0.26909 2.11456 175.833 2.4907 89.5372 -14.3295 -9.93254 0.0599617 68.9802 -6.00748 0.746165 24.9667 0.893411 0.467257 -0.291822 7.03874 -90.2697 12.7923 -0.70855 -0.454724 1.12149 -0.72787 -0.423106 -21.414 -0.53913 -0.646648 -1.40137 -0.539128 -0.646651 102.803 -50.1079 -81.1741 31.6477 -6.25743 -8.0076 1.715 -14.809 -12.0307 -14.4113 -0.819426 1.45166 -78.8764 -49.9754 95.2991 -35.3527 -0.657459 -18.3166 -1.50633 40.8634 -0.926892 0.273459 -0.140482 -6.54309 9.02895 0.423598 1.1841 -19.2454 0.489671 -2.47967 
13.3353 96.807 -28.4066 -136.569 -87.5648 -135.276 -174.225 2.80227 91.1822 -15.1569 4.16553 2.01475 67.7671 4.21066 0.121551 29.4941 -0.325858 2.20864 175.892 2.43043 89.6034 -14.3025 -9.60032 -0.0101239 69.235 -6.14351 0.892919 24.444 0.991289 0.698791 -0.302807 7.04206 -90.27 12.7798 -0.730486 -0.452998 1.10898 -0.749714 -0.420408 -21.4266 -0.56058 -0.651595 -1.41397 -0.560573 -0.651596 102.83 -50.0478 -81.1301 31.7058 -6.41763 -7.97451 1.66687 -14.8253 -12.1808 -14.2379 -0.810068 1.45706 -78.8674 -50.0362 95.3143 -35.2397 -0.690069 -18.3057 -1.4578 40.8679 -1.01078 -0.187716 -0.131264 -6.5145 9.23543 0.424261 0.845757 -19.3389 0.482836 -1.87298 
13.2734 96.8158 -28.4071 -137.771 -87.6686 -136.549 -174.277 2.80044 91.1411 -15.0709 3.99238 2.04493 67.9904 4.29816 -0.152446 28.9292 -0.27128 2.18985 175.85 2.52137 89.5743 -14.3601 -9.6061 0.0406195 68.9682 -6.00371 0.636164 25.1492 0.789262 0.941726 -0.312588 7.04671 -90.2611 12.779 -0.745674 -0.433172 1.10822 -0.764006 -0.399933 -21.4275 -0.581017 -0.637242 -1.41485 -0.581019 -0.637253 102.753 -50.0534 -81.2502 31.7631 -6.44113 -7.92574 1.83235 -14.6206 -12.0555 -14.8601 -0.856167 1.53649 -78.8706 -50.0026 95.3091 -35.2178 -0.600926 -18.2666 -1.41951 40.5971 -1.15044 -0.069565 -0.135331 -6.46096 9.11336 0.482385 1.55481 -19.2908 0.531087 -2.9683 
13.2956 96.8098 -28.3977 -136.258 -87.629 -134.969 -174.271 2.78683 91.1824 -15.0383 4.09993 2.0638 67.8908 4.2698 -0.00595541 29.205 -0.304918 2.25965 175.874 2.44245 89.6215 -14.2235 -9.62716 0.0369165 69.151 -6.13874 0.759291 24.5331 0.959277 0.777835 -0.295807 7.04948 -90.2643 12.778 -0.713878 -0.443166 1.10718 -0.732686 -0.411319 -21.4284 -0.547693 -0.637226 -1.41574 -0.547686 -0.637223 102.789 -50.116 -81.1953 31.7634 -6.34243 -7.87901 1.68832 -14.9918 -12.1088 -14.53 -0.872333 1.8273 -78.8976 -50.0117 95.2677 -35.0333 -0.548894 -18.2456 -1.49336 40.4587 -1.14891 0.0926932 -0.137614 -6.58086 8.96214 0.300847 0.892269 -19.0094 0.351859 -1.90702 
13.2647 96.8173 -28.3931 -137.019 -87.6547 -135.774 -174.222 2.84106 91.1854 -15.1423 4.02473 2.01091 67.8628 4.22819 -0.0475404 29.2448 -0.287975 2.07457 175.854 2.49601 89.5863 -14.3133 -9.69356 0.0474646 68.9803 -6.00082 0.682818 25.0871 0.819376 0.82371 -0.301133 7.05182 -90.2643 12.7669 -0.724432 -0.442283 1.09606 -0.7432 -0.409977 -21.4395 -0.558026 -0.639557 -1.4269 -0.55802 -0.63956 102.82 -50.0213 -81.1464 31.8137 -6.19679 -7.91885 1.69403 -14.8247 -12.1138 -14.2681 -0.866908 1.91448 -78.8532 -50.1309 95.3379 -34.9063 -0.495419 -18.2449 -1.5828 40.4438 -1.04073 0.718388 -0.155634 -6.72615 8.98307 0.482719 1.26055 -19.0092 0.508444 -2.34903 
13.2736 96.8046 -28.3798 -137.231 -87.7407 -135.959 -174.295 2.85272 91.179 -15.0422 4.21825 2.07043 67.8104 4.25825 0.00392181 29.3406 -0.327649 2.3496 175.816 2.48521 89.5948 -14.2253 -9.67046 0.107309 69.0724 -6.11147 0.655639 24.8164 0.895999 0.736625 -0.301941 7.05142 -90.272 12.7684 -0.729713 -0.456985 1.09761 -0.749129 -0.42443 -21.438 -0.55864 -0.655161 -1.42533 -0.558649 -0.655178 102.915 -50.0332 -80.9979 31.742 -6.13159 -7.96799 1.67295 -14.8002 -12.16 -14.2515 -0.875109 1.99232 -78.915 -50.2737 95.2467 -34.8142 -0.532276 -18.3675 -1.73035 40.117 -0.862423 0.147438 -0.142659 -6.68615 8.9899 0.321451 0.98264 -19.0816 0.343722 -1.83247 
13.2536 96.8274 -28.3748 -137.127 -87.6424 -135.896 -174.228 2.73319 91.1658 -14.9592 4.15491 2.00617 67.7848 4.30653 0.179524 29.2939 -0.281834 1.98213 175.861 2.55791 89.5616 -14.4639 -9.57229 0.0159395 69.0071 -5.84241 0.949052 25.1135 0.822839 0.740849 -0.308765 7.04821 -90.2742 12.7552 -0.744375 -0.46048 1.08436 -0.763926 -0.427276 -21.4513 -0.571584 -0.66291 -1.4386 -0.571575 -0.662909 102.875 -49.8959 -81.0578 31.8583 -6.05432 -7.96292 1.65045 -14.8188 -12.1372 -14.1844 -0.860634 1.90653 -78.7835 -50.3124 95.4471 -34.808 -0.443174 -18.2744 -1.58839 40.1454 -1.10998 0.230697 -0.131163 -6.15847 8.97435 0.461951 1.09495 -19.2055 0.480169 -1.98679 
13.2691 96.8219 -28.3592 -138.309 -87.7565 -137.021 -174.295 2.82914 91.201 -15.0545 4.17359 2.09401 67.7954 4.20244 -0.0887109 29.384 -0.321277 2.25898 175.881 2.49876 89.6436 -14.2934 -9.62626 0.0494398 68.8265 -5.86144 0.67232 25.3616 0.747659 0.862001 -0.313181 7.04622 -90.2862 12.7633 -0.758893 -0.482548 1.09246 -0.779395 -0.448678 -21.4431 -0.578789 -0.688315 -1.43047 -0.578785 -0.688318 102.927 -49.8783 -80.9761 31.7521 -6.24388 -7.97241 1.68901 -14.8047 -12.1689 -14.1214 -0.873039 2.04342 -78.8978 -50.3501 95.2745 -34.6926 -0.41203 -18.3171 -1.6864 40.3155 -1.04474 0.0751686 -0.131223 -6.20011 8.78577 0.372086 1.04715 -18.8967 0.3776 -1.82719 
